<?xml version="1.0" standalone="no"?><!DOCTYPE svg PUBLIC "-//W3C//DTD SVG 1.1//EN" "http://www.w3.org/Graphics/SVG/1.1/DTD/svg11.dtd"><svg t="1599365098452" class="icon" viewBox="0 0 1024 1024" version="1.1" xmlns="http://www.w3.org/2000/svg" p-id="41887" xmlns:xlink="http://www.w3.org/1999/xlink" width="200" height="200"><defs><style type="text/css"></style></defs><path d="M128 288a32 32 0 0 1 32-32h704c17.6 0 32 14.336 32 32s-14.4 32-32 32H160a32 32 0 0 1-32-32z m0 192a32 32 0 0 0 32 32h704c17.6 0 32-14.336 32-32s-14.4-32-32-32H160a32 32 0 0 0-32 32z m0 192c0 17.6 14.336 32 32 32h704c17.6 0 32-14.4 32-32s-14.4-32-32-32H160c-17.664 0-32 14.4-32 32z" p-id="41888" fill="#ffffff"></path></svg>