<svg id="svg_canvas" data-noselect="" viewBox="0 0 280 40" width="280" height="40" preserveAspectRatio="none" version="1.1" xmlns="http://www.w3.org/2000/svg" style=""><defs><filter id="filter_shadow_shape_HMUyFAB88C" width="1000%" height="1000%"><feGaussianBlur in="SourceAlpha" stdDeviation="0"></feGaussianBlur> <feOffset dx="2" dy="2" result="offsetblur"></feOffset><feComponentTransfer><feFuncA type="linear" slope="0.4"></feFuncA></feComponentTransfer><feMerge><feMergeNode></feMergeNode><feMergeNode in="SourceGraphic"></feMergeNode></feMerge></filter><filter id="filter_shadow_shape_ILkhYAW2Wr" width="1000%" height="1000%"><feGaussianBlur in="SourceAlpha" stdDeviation="0"></feGaussianBlur> <feOffset dx="2" dy="2" result="offsetblur"></feOffset><feComponentTransfer><feFuncA type="linear" slope="0.4"></feFuncA></feComponentTransfer><feMerge><feMergeNode></feMergeNode><feMergeNode in="SourceGraphic"></feMergeNode></feMerge></filter></defs> <g id="shape_HMUyFAB88C" transform="translate(-9.105536253460002,3.9999961853027344) rotate(0,150.26629090389503,15.070706847533803) scale(1,1)" filter="url(#filter_shadow_shape_HMUyFAB88C)" style="cursor: move; opacity: 1;"><g><svg xmlns="http://www.w3.org/2000/svg" version="1.1" xmlns:xlink="http://www.w3.org/1999/xlink" overflow="hidden" style="top:0; left: 0" width="300.53258180779005" height="30.141413695067605" viewBox="0 0 675.5325818077908 67.7514128095039" preserveAspectRatio="none" data-parent="shape_HMUyFAB88C"><rect fill="rgba(0,0,0,0)" width="675.53258180779" height="67.751412809504"></rect> <rect opacity="0"></rect><g transform="translate(22.524412043746338,0)" data-width="630.4837577202982"><path fill="rgb(212, 35, 122)" d="M24.48 1.35L24.48-37.48L4.05-37.48Q2.76-37.48 2.76-38.83L2.76-38.83L2.76-39.45Q2.76-40.74 4.05-40.74L4.05-40.74L53.51-40.74Q54.81-40.74 54.81-39.45L54.81-39.45L54.81-38.83Q54.81-37.48 53.51-37.48L53.51-37.48L33.14-37.48L33.14 1.35Q33.14 2.64 31.85 2.64L31.85 2.64L25.77 2.64Q24.48 2.64 24.48 1.35L24.48 1.35Z" transform="translate(5 49.51930504349122)" data-glyph-w="57.62246405060797"></path><path fill="rgb(212, 35, 122)" d="M9.28-40.74L48.34-40.74Q50.98-40.74 52.90-38.83L52.90-38.83Q54.81-36.91 54.81-34.27L54.81-34.27L54.81-3.88Q54.81-1.18 52.90 0.73L52.90 0.73Q50.98 2.64 48.34 2.64L48.34 2.64L9.28 2.64Q6.58 2.64 4.67 0.73L4.67 0.73Q2.76-1.18 2.76-3.88L2.76-3.88L2.76-34.27Q2.76-36.91 4.67-38.83L4.67-38.83Q6.58-40.74 9.28-40.74L9.28-40.74ZM44.00-37.48L13.62-37.48Q12.72-37.48 12.10-36.86L12.10-36.86Q11.42-36.24 11.42-35.34L11.42-35.34L11.42-2.81Q11.42-1.91 12.10-1.24L12.10-1.24Q12.72-0.62 13.62-0.62L13.62-0.62L44.00-0.62Q44.91-0.62 45.52-1.24L45.52-1.24Q46.14-1.91 46.14-2.81L46.14-2.81L46.14-35.34Q46.14-36.24 45.52-36.86L45.52-36.86Q44.91-37.48 44.00-37.48L44.00-37.48Z" transform="translate(71.62246405060796 49.51930504349122)" data-glyph-w="57.62246405060797"></path><path fill="rgb(212, 35, 122)" d="M4.05-40.68L44.00-40.68Q46.71-40.68 49.41-39.33L49.41-39.33Q54.81-36.63 54.81-29.88L54.81-29.88L54.81-8.16Q54.81-1.41 49.41 1.35L49.41 1.35Q46.71 2.70 44.00 2.70L44.00 2.70L4.05 2.70Q2.76 2.70 2.76 1.41L2.76 1.41L2.76-39.39Q2.76-40.68 4.05-40.68L4.05-40.68ZM11.42-36.13L11.42-1.86Q11.42-0.56 12.77-0.56L12.77-0.56L39.67-0.56Q41.25-0.56 42.88-1.41L42.88-1.41Q46.14-3.04 46.14-7.09L46.14-7.09L46.14-30.95Q46.14-35.00 42.88-36.63L42.88-36.63Q41.25-37.42 39.67-37.42L39.67-37.42L12.77-37.42Q11.42-37.42 11.42-36.13L11.42-36.13Z" transform="translate(138.24492810121592 49.51930504349122)" data-glyph-w="57.62246405060797"></path><path fill="rgb(212, 35, 122)" d="M9.28-40.74L48.34-40.74Q50.98-40.74 52.90-38.83L52.90-38.83Q54.81-36.91 54.81-34.27L54.81-34.27L54.81-3.88Q54.81-1.18 52.90 0.73L52.90 0.73Q50.98 2.64 48.34 2.64L48.34 2.64L9.28 2.64Q6.58 2.64 4.67 0.73L4.67 0.73Q2.76-1.18 2.76-3.88L2.76-3.88L2.76-34.27Q2.76-36.91 4.67-38.83L4.67-38.83Q6.58-40.74 9.28-40.74L9.28-40.74ZM44.00-37.48L13.62-37.48Q12.72-37.48 12.10-36.86L12.10-36.86Q11.42-36.24 11.42-35.34L11.42-35.34L11.42-2.81Q11.42-1.91 12.10-1.24L12.10-1.24Q12.72-0.62 13.62-0.62L13.62-0.62L44.00-0.62Q44.91-0.62 45.52-1.24L45.52-1.24Q46.14-1.91 46.14-2.81L46.14-2.81L46.14-35.34Q46.14-36.24 45.52-36.86L45.52-36.86Q44.91-37.48 44.00-37.48L44.00-37.48Z" transform="translate(204.86739215182388 49.51930504349122)" data-glyph-w="57.62246405060797"></path><path fill="rgb(212, 35, 122)" d="" transform="translate(271.48985620243184 49.51930504349122)" data-glyph-w="16.881581264826554"></path><path fill="rgb(212, 35, 122)" d="M4.05 2.64L48.34 2.64Q49.97 2.64 51.60 1.80L51.60 1.80Q54.81 0.17 54.81-3.88L54.81-3.88Q54.81-6.58 52.67-8.78L52.67-8.78Q51.43-10.02 50.48-10.41L50.48-10.41L12.49-33.82Q11.42-34.27 11.42-35.34L11.42-35.34Q11.42-37.48 13.62-37.48L13.62-37.48L53.51-37.48Q54.81-37.48 54.81-38.83L54.81-38.83L54.81-39.45Q54.81-40.74 53.51-40.74L53.51-40.74L9.28-40.74Q7.65-40.74 6.02-39.95L6.02-39.95Q2.76-38.32 2.76-34.27L2.76-34.27Q2.76-31.51 4.90-29.37L4.90-29.37Q6.13-28.14 7.09-27.74L7.09-27.74L45.07-4.33Q46.14-3.88 46.14-2.81L46.14-2.81Q46.14-0.62 44.00-0.62L44.00-0.62L4.05-0.62Q2.76-0.62 2.76 0.68L2.76 0.68L2.76 1.35Q2.76 2.64 4.05 2.64L4.05 2.64Z" transform="translate(297.3714374672584 49.51930504349122)" data-glyph-w="57.62246405060797"></path><path fill="rgb(212, 35, 122)" d="M24.48 1.35L24.48-37.48L4.05-37.48Q2.76-37.48 2.76-38.83L2.76-38.83L2.76-39.45Q2.76-40.74 4.05-40.74L4.05-40.74L53.51-40.74Q54.81-40.74 54.81-39.45L54.81-39.45L54.81-38.83Q54.81-37.48 53.51-37.48L53.51-37.48L33.14-37.48L33.14 1.35Q33.14 2.64 31.85 2.64L31.85 2.64L25.77 2.64Q24.48 2.64 24.48 1.35L24.48 1.35Z" transform="translate(363.99390151786633 49.51930504349122)" data-glyph-w="57.62246405060797"></path><path fill="rgb(212, 35, 122)" d="M2.76-18.96L2.76 1.41Q2.76 2.70 4.05 2.70L4.05 2.70L10.13 2.70Q11.42 2.70 11.42 1.41L11.42 1.41L11.42-10.35L46.14-10.35L46.14 1.41Q46.14 2.70 47.44 2.70L47.44 2.70L53.51 2.70Q54.81 2.70 54.81 1.41L54.81 1.41L54.81-18.96Q54.81-19.41 54.58-19.75L54.58-19.75L39.73-40.18Q39.33-40.68 38.66-40.68L38.66-40.68L18.91-40.68Q18.29-40.68 17.89-40.18L17.89-40.18L3.04-19.75Q2.76-19.41 2.76-18.96L2.76-18.96ZM46.14-13.56L11.42-13.56L11.42-16.15Q11.42-16.60 11.70-16.94L11.70-16.94L26.22-36.91Q26.62-37.42 27.29-37.42L27.29-37.42L30.33-37.42Q30.95-37.42 31.34-36.91L31.34-36.91L45.92-16.94Q46.14-16.60 46.14-16.15L46.14-16.15L46.14-13.56Z" transform="translate(430.6163655684743 49.51930504349122)" data-glyph-w="57.62246405060797"></path><path fill="rgb(212, 35, 122)" d="M53.51-40.68L9.28-40.68Q7.65-40.68 6.02-39.90L6.02-39.90Q2.76-38.26 2.76-34.21L2.76-34.21L2.76-3.83Q2.76-2.19 3.60-0.56L3.60-0.56Q5.23 2.70 9.28 2.70L9.28 2.70L53.51 2.70Q54.81 2.70 54.81 1.41L54.81 1.41L54.81 0.73Q54.81-0.56 53.51-0.56L53.51-0.56L13.62-0.56Q11.42-0.56 11.42-2.76L11.42-2.76L11.42-35.28Q11.42-37.42 13.62-37.42L13.62-37.42L53.51-37.42Q54.81-37.42 54.81-38.77L54.81-38.77L54.81-39.39Q54.81-40.68 53.51-40.68L53.51-40.68Z" transform="translate(497.23882961908225 49.51930504349122)" data-glyph-w="57.62246405060797"></path><path fill="rgb(212, 35, 122)" d="M50.87-38.32L19.02-19.08L50.87 0.23Q51.71 0.73 51.43 1.69L51.43 1.69Q51.15 2.64 50.19 2.64L50.19 2.64L38.43 2.64Q38.10 2.64 37.76 2.42L37.76 2.42L11.42-13.51L11.42 1.35Q11.42 2.64 10.13 2.64L10.13 2.64L4.05 2.64Q2.76 2.64 2.76 1.35L2.76 1.35L2.76-39.45Q2.76-40.74 4.05-40.74L4.05-40.74L10.13-40.74Q11.42-40.74 11.42-39.45L11.42-39.45L11.42-24.65L37.76-40.57Q38.10-40.74 38.43-40.74L38.43-40.74L50.19-40.74Q51.15-40.74 51.43-39.78L51.43-39.78Q51.71-38.83 50.87-38.32L50.87-38.32Z" transform="translate(563.8612936696902 49.51930504349122)" data-glyph-w="57.62246405060797"></path></g></svg></g> <!----></g><g id="shape_ILkhYAW2Wr" transform="translate(40,11.570709228515625) rotate(0,5.5,5.5) scale(1,1)" filter="url(#filter_shadow_shape_ILkhYAW2Wr)" style="cursor: move; opacity: 1;"><g><rect fill="rgba(0,0,0,0)" width="31" height="31" x="-10" y="-10"></rect><svg t="1599366135050" class="icon" viewBox="0 0 1024 1024" version="1.1" xmlns="http://www.w3.org/2000/svg" p-id="52797" data-spm-anchor-id="a313x.7781069.0.i17" xmlns:xlink="http://www.w3.org/1999/xlink" width="11" height="11" preserveAspectRatio="none" data-parent="shape_ILkhYAW2Wr"><defs><style type="text/css"></style></defs><path d="M4.11414 576.8c-4.6-4.3-5.5-11.9-1.9-17.3l52.2-60.4c3.5-5.3 10.5-6.6 15.6-3l266.3 184.2c15.4 10.7 37.5 11.4 53-3.6L949.91414 101c4.6-4.2 12.1-4.2 16.8 0l53.6 47.9c4.7 4.2 5.1 11.3 0.8 16L409.01414 911.4c-19.2 23.2-46 15.2-60.1 1.8L4.11414 576.8z" p-id="52798" data-spm-anchor-id="a313x.7781069.0.i14" fill="#d4237a" class=""></path></svg></g> <!----></g> <g id="rectBox"><rect id="rect_shape_HMUyFAB88C" width="300.53258180779005" height="30.141413695067605" transform="translate(-9.105536253460002,3.9999961853027344) rotate(0,150.26629090389503,15.070706847533803) scale(1,1)" fill="none" stroke="rgba(0,0,0,0)" class="box_trans"></rect><rect id="rect_shape_ILkhYAW2Wr" width="11" height="11" transform="translate(40,11.570709228515625) rotate(0,5.5,5.5) scale(1,1)" fill="none" stroke="rgba(0,0,0,0)" class="box_trans"></rect></g> <!----></svg>