<?xml version="1.0" standalone="no"?><!DOCTYPE svg PUBLIC "-//W3C//DTD SVG 1.1//EN" "http://www.w3.org/Graphics/SVG/1.1/DTD/svg11.dtd"><svg t="1598879880056" class="icon" viewBox="0 0 1024 1024" version="1.1" xmlns="http://www.w3.org/2000/svg" p-id="4809" xmlns:xlink="http://www.w3.org/1999/xlink" width="200" height="200"><defs><style type="text/css"></style></defs><path d="M102.03136 1024q-28.27264 0-47.94368-20.28544t-19.67104-48.55808V136.448q0-28.27264 19.67104-48.54784 19.67104-20.28544 47.94368-20.28544h239.70816q13.52704 0 23.35744 9.8304 9.84064 9.8304 9.84064 23.97184t-9.84064 24.58624q-9.8304 10.4448-23.35744 10.4448H102.03136v818.70848h683.48928V647.8336q0-13.5168 9.8304-23.3472 9.8304-9.84064 23.97184-9.84064t23.97184 9.84064q9.8304 9.84064 9.8304 23.3472v307.32288q0 28.27264-19.67104 48.55808-19.6608 20.28544-47.93344 20.28544H102.03136zM716.67712 67.61472q-55.31648 0-102.64576 27.65824-47.32928 27.65824-74.37312 74.97728-27.04384 47.32928-27.04384 102.64576 0 55.31648 27.04384 102.656 27.04384 47.32928 74.37312 74.37312 47.32928 27.04384 102.64576 27.04384 55.31648 0 102.64576-27.04384 47.32928-27.04384 74.98752-74.37312 27.65824-47.32928 27.65824-102.656t-27.65824-102.64576q-27.65824-47.31904-74.98752-74.97728-47.32928-27.65824-102.64576-27.65824z m0-67.61472q74.98752 0 137.68704 36.25984 62.68928 36.25984 98.95936 98.95936 36.27008 62.68928 36.27008 137.07264 0 74.37312-36.27008 137.0624-36.25984 62.68928-98.95936 99.57376-62.69952 36.87424-137.07264 36.87424-74.37312 0-137.07264-36.87424-62.69952-36.87424-99.57376-99.57376-36.87424-62.68928-36.87424-137.0624t36.87424-137.07264q36.87424-62.69952 99.57376-98.95936Q642.9184 0 716.66688 0z m-34.41664 285.19424q0-28.27264 20.8896-47.94368l66.38592-66.37568q9.8304-9.84064 23.97184-9.84064t23.97184 9.84064q9.8304 9.8304 9.8304 23.97184t-9.8304 25.20064l-66.38592 65.14688v88.51456q0 13.5168-9.8304 23.35744t-23.97184 9.84064q-14.14144 0-24.58624-9.84064-10.4448-9.84064-10.4448-23.35744v-88.51456zM205.29152 818.70848q-14.75584 0-24.58624-9.84064-9.8304-9.84064-9.8304-23.97184t9.8304-23.97184q9.8304-9.84064 24.58624-9.84064h409.35424q13.52704 0 23.97184 9.84064t10.4448 23.97184q0 14.1312-10.4448 23.97184t-23.97184 9.84064H205.29152z m0-136.448q-14.75584 0-24.58624-9.84064-9.8304-9.84064-9.8304-23.97184t9.8304-23.97184q9.8304-9.84064 24.58624-9.84064h272.90624q13.5168 0 23.9616 9.84064 10.45504 9.84064 10.45504 23.97184t-10.45504 23.97184q-10.4448 9.84064-23.9616 9.84064H205.29152z m0-136.45824q-14.75584 0-24.58624-9.8304-9.8304-9.8304-9.8304-23.97184t9.8304-24.58624q9.8304-10.4448 24.58624-10.4448h136.448q13.52704 0 23.35744 10.4448 9.84064 10.4448 9.84064 24.58624 0 14.14144-9.84064 23.97184-9.8304 9.8304-23.35744 9.8304H205.29152z" fill="#ffffff" p-id="4810"></path></svg>