<?xml version="1.0" standalone="no"?><!DOCTYPE svg PUBLIC "-//W3C//DTD SVG 1.1//EN" "http://www.w3.org/Graphics/SVG/1.1/DTD/svg11.dtd"><svg t="1599378619046" class="icon" viewBox="0 0 1024 1024" version="1.1" xmlns="http://www.w3.org/2000/svg" p-id="3744" xmlns:xlink="http://www.w3.org/1999/xlink" width="200" height="200"><defs><style type="text/css"></style></defs><path d="M733.85516357 791.94537354c0 26.57318115-21.62933349 48.20251465-48.20251464 48.20251464H338.34735107c-26.57318115 0-48.20251465-21.62933349-48.20251464-48.20251464V280.25714112h443.71032714v511.68823242zM386.54986573 193.73980713c0-5.56182862 4.3258667-9.88769531 9.88769531-9.88769531h231.74285888c5.56182862 0 9.88769531 4.3258667 9.88769531 9.88769531v29.04510498H386.54986573V193.73980713z m491.91284179 29.04510498H695.54034424V193.73980713c0-37.07885742-30.2810669-67.35992432-67.35992432-67.35992432h-231.74285888c-37.07885742 0-67.35992432 30.2810669-67.35992432 67.35992432v29.04510498H145.53729248C129.4697876 222.78491211 116.4921875 235.76251221 116.4921875 251.83001709s12.9776001 29.04510498 29.04510498 29.04510498h86.51733398v511.07025147c0 58.70819092 47.58453369 106.29272461 106.29272461 106.29272461h347.30529786c58.70819092 0 106.29272461-47.58453369 106.29272461-106.29272461V280.25714112h86.51733398c16.06750489 0 29.04510498-12.9776001 29.04510498-29.04510499s-12.9776001-28.42712403-29.04510498-28.42712402zM512 753.01257325c16.06750489 0 29.04510498-12.9776001 29.04510498-29.04510499v-308.99047852c0-16.06750489-12.9776001-29.04510498-29.04510498-29.04510497s-29.04510498 12.9776001-29.04510498 29.04510497v308.99047852c0 16.06750489 12.9776001 29.04510498 29.04510498 29.04510498m-135.33782959 0c16.06750489 0 29.04510498-12.9776001 29.04510498-29.04510498v-308.99047852c0-16.06750489-12.9776001-29.04510498-29.04510498-29.04510497s-29.04510498 12.9776001-29.04510498 29.04510497v308.99047852c0.61798096 16.06750489 13.59558106 29.04510498 29.04510498 29.04510498m270.67565918 0c16.06750489 0 29.04510498-12.9776001 29.04510499-29.04510498v-308.99047852c0-16.06750489-12.9776001-29.04510498-29.04510499-29.04510497s-29.04510498 12.9776001-29.04510498 29.04510497v308.99047852c0 16.06750489 12.9776001 29.04510498 29.04510498 29.04510498" fill="#d81e06" p-id="3745"></path></svg>